<svg width="131" height="19" viewBox="0 0 131 19" fill="none" xmlns="http://www.w3.org/2000/svg">
<path d="M9.5 0L12.292 5.65717L18.535 6.56434L14.0175 10.9678L15.084 17.1857L9.5 14.25L3.91604 17.1857L4.98248 10.9678L0.464963 6.56434L6.70802 5.65717L9.5 0Z" fill="#F5A235"/>
<path d="M37.5 0L40.292 5.65717L46.535 6.56434L42.0175 10.9678L43.084 17.1857L37.5 14.25L31.916 17.1857L32.9825 10.9678L28.465 6.56434L34.708 5.65717L37.5 0Z" fill="#F5A235"/>
<path d="M65.5 0L68.292 5.65717L74.535 6.56434L70.0175 10.9678L71.084 17.1857L65.5 14.25L59.916 17.1857L60.9825 10.9678L56.465 6.56434L62.708 5.65717L65.5 0Z" fill="#F5A235"/>
<path d="M93.5 0L96.292 5.65717L102.535 6.56434L98.0175 10.9678L99.084 17.1857L93.5 14.25L87.916 17.1857L88.9825 10.9678L84.465 6.56434L90.708 5.65717L93.5 0Z" fill="#F5A235"/>
<path d="M121.5 0L124.292 5.65717L130.535 6.56434L126.018 10.9678L127.084 17.1857L121.5 14.25L115.916 17.1857L116.982 10.9678L112.465 6.56434L118.708 5.65717L121.5 0Z" fill="#3D4364"/>
</svg>
